# xmcd
#
# Track frame offsets: 
#        150
#        14507
#        34945
#        53042
#        64417
#        79282
#        93885
#        109370
#        120332
#        134262
#        147162
#        164107
#        179355
#        192915
#
# Disc length: 2760 seconds
#
# Revision: 0
# Processed by: cddbd v1.4PL0 Copyright (c) Steve Scherf et al.
# Submitted via: ExactAudioCopy v0.90b4
#
DISCID=c90ac60e
DTITLE=Mike Walker - Mike Walker
DYEAR=2001
DGENRE=Country
TTITLE0=Honey Do
TTITLE1=Stones In The Road
TTITLE2=This Is That
TTITLE3=Who's Your Daddy
TTITLE4=See If I Care
TTITLE5=What Kind Of Love
TTITLE6=It's Too Late
TTITLE7=I Want A Little More
TTITLE8=It's Just Memory
TTITLE9=Long, Long Kiss
TTITLE10=If There's A Chance To Say I Love You
TTITLE11=Honey, Love Me That Way
TTITLE12=Rub It In
TTITLE13=Memphis Women And Chicken
EXTD=Ripped And Encoded By scanner1
EXTT0=
EXTT1=
EXTT2=
EXTT3=
EXTT4=
EXTT5=
EXTT6=
EXTT7=
EXTT8=
EXTT9=
EXTT10=
EXTT11=
EXTT12=
EXTT13=
PLAYORDER=
